<svg width="500" height="500" viewBox="0 0 500 500" fill="none" xmlns="http://www.w3.org/2000/svg">
<g clip-path="url(#clip0_344_387)">
<g clip-path="url(#clip1_344_387)">
<rect width="500" height="500" rx="80" fill="#0C0D0E"/>
<path d="M366.667 100H133.333C114.924 100 100 114.924 100 133.333V366.667C100 385.076 114.924 400 133.333 400H366.667C385.076 400 400 385.076 400 366.667V133.333C400 114.924 385.076 100 366.667 100Z" stroke="#6E51D7" stroke-width="32" stroke-linecap="round" stroke-linejoin="round"/>
<path d="M200 183.333H316.667" stroke="#6E51D7" stroke-width="32" stroke-linecap="round" stroke-linejoin="round"/>
<path d="M183.333 250H283.333" stroke="#6E51D7" stroke-width="32" stroke-linecap="round" stroke-linejoin="round"/>
<path d="M233.333 316.667H316.667" stroke="#6E51D7" stroke-width="32" stroke-linecap="round" stroke-linejoin="round"/>
</g>
<path d="M200 409C200 364.817 235.817 329 280 329H500V500H200V409Z" fill="#9983EC"/>
<path d="M260.368 451L287.825 377.5H308.038L335.758 451H316.123L310.925 436.09H284.57L279.478 451H260.368ZM288.508 421.547H306.883L297.643 396.137L288.508 421.547ZM344.746 451V377.5H374.199C379.694 377.5 384.559 378.462 388.794 380.387C393.029 382.277 396.354 385.042 398.769 388.682C401.219 392.322 402.444 396.697 402.444 401.807C402.444 406.987 401.324 411.38 399.084 414.985C396.844 418.59 393.589 421.337 389.319 423.227C385.049 425.117 379.869 426.062 373.779 426.062H362.176V451H344.746ZM362.176 411.467H373.359C377.034 411.467 379.886 410.75 381.916 409.315C383.981 407.845 385.014 405.43 385.014 402.07C385.014 398.71 383.946 396.277 381.811 394.772C379.711 393.232 376.929 392.462 373.464 392.462H362.176V411.467ZM413.755 451V377.5H431.185V451H413.755Z" fill="#E5E6E5"/>
</g>
<defs>
<clipPath id="clip0_344_387">
<rect width="500" height="500" rx="80" fill="white"/>
</clipPath>
<clipPath id="clip1_344_387">
<rect width="500" height="500" fill="white"/>
</clipPath>
</defs>
</svg>
